<svg xmlns="http://www.w3.org/2000/svg" xmlns:xlink="http://www.w3.org/1999/xlink" width="48" zoomAndPan="magnify" viewBox="0 0 36 36.000001" height="48" preserveAspectRatio="xMidYMid meet" version="1.0"><defs><g/><clipPath id="8b222ea576"><path d="M 0.488281 0 L 35.511719 0 L 35.511719 35.027344 L 0.488281 35.027344 Z M 0.488281 0 " clip-rule="nonzero"/></clipPath><clipPath id="950b80e96f"><path d="M 1.179688 1.832031 L 33.796875 1.832031 L 33.796875 34.449219 L 1.179688 34.449219 Z M 1.179688 1.832031 " clip-rule="nonzero"/></clipPath><clipPath id="ee25df067b"><path d="M 17.488281 1.832031 C 8.480469 1.832031 1.179688 9.132812 1.179688 18.140625 C 1.179688 27.148438 8.480469 34.449219 17.488281 34.449219 C 26.496094 34.449219 33.796875 27.148438 33.796875 18.140625 C 33.796875 9.132812 26.496094 1.832031 17.488281 1.832031 Z M 17.488281 1.832031 " clip-rule="nonzero"/></clipPath><clipPath id="bb55368288"><path d="M 0.179688 0.832031 L 32.796875 0.832031 L 32.796875 33.449219 L 0.179688 33.449219 Z M 0.179688 0.832031 " clip-rule="nonzero"/></clipPath><clipPath id="0e0d4a83a6"><path d="M 16.488281 0.832031 C 7.480469 0.832031 0.179688 8.132812 0.179688 17.140625 C 0.179688 26.148438 7.480469 33.449219 16.488281 33.449219 C 25.496094 33.449219 32.796875 26.148438 32.796875 17.140625 C 32.796875 8.132812 25.496094 0.832031 16.488281 0.832031 Z M 16.488281 0.832031 " clip-rule="nonzero"/></clipPath><clipPath id="3387bea770"><rect x="0" width="33" y="0" height="34"/></clipPath><clipPath id="37fa394a31"><path d="M 0.488281 0 L 29 0 L 29 35.027344 L 0.488281 35.027344 Z M 0.488281 0 " clip-rule="nonzero"/></clipPath><clipPath id="fc67e73059"><path d="M 0.488281 3 L 28.507812 3 L 28.507812 30 L 0.488281 30 Z M 0.488281 3 " clip-rule="nonzero"/></clipPath><clipPath id="9864cd8dd9"><rect x="0" width="29" y="0" height="36"/></clipPath></defs><g clip-path="url(#8b222ea576)"><path fill="#ffffff" d="M 0.488281 0 L 35.511719 0 L 35.511719 35.027344 L 0.488281 35.027344 Z M 0.488281 0 " fill-opacity="1" fill-rule="nonzero"/><path fill="#ffffff" d="M 0.488281 0 L 35.511719 0 L 35.511719 35.027344 L 0.488281 35.027344 Z M 0.488281 0 " fill-opacity="1" fill-rule="nonzero"/></g><g clip-path="url(#950b80e96f)"><g clip-path="url(#ee25df067b)"><g transform="matrix(1, 0, 0, 1, 1, 1)"><g clip-path="url(#3387bea770)"><g clip-path="url(#bb55368288)"><g clip-path="url(#0e0d4a83a6)"><path fill="#004aad" d="M 0.179688 0.832031 L 32.796875 0.832031 L 32.796875 33.449219 L 0.179688 33.449219 Z M 0.179688 0.832031 " fill-opacity="1" fill-rule="nonzero"/></g></g></g></g></g></g><g clip-path="url(#37fa394a31)"><g transform="matrix(1, 0, 0, 1, 0.000000000000000056, 0.000000000000010582)"><g clip-path="url(#9864cd8dd9)"><g clip-path="url(#fc67e73059)"><g fill="#ffffff" fill-opacity="1"><g transform="translate(1.717389, 27.647517)"><g><path d="M 2.734375 -19.09375 C 5.054688 -20.6875 7.703125 -21.945312 10.671875 -22.875 C 13.640625 -23.8125 16.09375 -24.28125 18.03125 -24.28125 C 19.96875 -24.28125 21.53125 -24.070312 22.71875 -23.65625 C 23.90625 -23.238281 24.757812 -22.707031 25.28125 -22.0625 C 26.175781 -20.957031 26.625 -20 26.625 -19.1875 C 26.625 -18.195312 25.941406 -17.046875 24.578125 -15.734375 C 23.878906 -15.066406 22.894531 -14.320312 21.625 -13.5 L 21.234375 -13.296875 C 21.066406 -13.242188 20.984375 -13.171875 20.984375 -13.078125 L 21.1875 -12.890625 C 22.125 -12.515625 22.835938 -12.0625 23.328125 -11.53125 C 23.816406 -11 24.0625 -10.222656 24.0625 -9.203125 C 24.0625 -7.785156 23.429688 -6.4375 22.171875 -5.15625 C 20.921875 -3.875 19.441406 -2.84375 17.734375 -2.0625 C 16.035156 -1.28125 14.441406 -0.660156 12.953125 -0.203125 C 11.472656 0.242188 10.414062 0.46875 9.78125 0.46875 C 9.15625 0.46875 8.585938 0.390625 8.078125 0.234375 C 7.578125 0.078125 7.171875 -0.109375 6.859375 -0.328125 C 6.210938 -0.773438 5.757812 -1.238281 5.5 -1.71875 C 5.40625 -1.84375 5.320312 -1.90625 5.25 -1.90625 C 5.082031 -1.90625 4.769531 -1.378906 4.3125 -0.328125 C 3.851562 0.722656 3.613281 1.25 3.59375 1.25 L 3.59375 1.21875 C 3.519531 1.457031 3.398438 1.578125 3.234375 1.578125 C 2.847656 1.578125 2.476562 1.222656 2.125 0.515625 C 1.78125 -0.179688 1.609375 -0.726562 1.609375 -1.125 C 1.609375 -1.519531 1.847656 -2.191406 2.328125 -3.140625 C 2.804688 -4.085938 3.285156 -4.894531 3.765625 -5.5625 L 4.484375 -6.578125 C 5.035156 -7.773438 7.3125 -10.273438 11.3125 -14.078125 C 15.3125 -17.890625 17.578125 -19.796875 18.109375 -19.796875 C 18.347656 -19.796875 18.546875 -19.71875 18.703125 -19.5625 C 18.859375 -19.40625 18.984375 -19.171875 19.078125 -18.859375 C 19.078125 -18.671875 18.96875 -18.515625 18.75 -18.390625 L 13.6875 -12.9375 C 13.632812 -12.832031 13.609375 -12.765625 13.609375 -12.734375 C 13.609375 -12.703125 13.644531 -12.6875 13.71875 -12.6875 C 14.25 -12.6875 15.445312 -13.09375 17.3125 -13.90625 C 19.175781 -14.71875 20.988281 -15.707031 22.75 -16.875 C 24.507812 -18.050781 25.390625 -19.023438 25.390625 -19.796875 C 25.390625 -20.628906 23.71875 -21.046875 20.375 -21.046875 C 18.238281 -21.046875 16.132812 -20.8125 14.0625 -20.34375 C 11.988281 -19.882812 10.210938 -19.320312 8.734375 -18.65625 C 7.265625 -18 5.941406 -17.3125 4.765625 -16.59375 C 3.597656 -15.875 2.726562 -15.25 2.15625 -14.71875 C 1.582031 -14.195312 1.296875 -13.863281 1.296875 -13.71875 C 1.296875 -13.570312 1.351562 -13.5 1.46875 -13.5 C 2.238281 -13.5 3.503906 -13.910156 5.265625 -14.734375 C 7.023438 -15.566406 8.09375 -16.117188 8.46875 -16.390625 C 8.851562 -16.671875 9.097656 -16.8125 9.203125 -16.8125 C 9.316406 -16.8125 9.410156 -16.75 9.484375 -16.625 C 8.597656 -15.164062 7.378906 -13.925781 5.828125 -12.90625 C 4.285156 -11.894531 3.082031 -11.390625 2.21875 -11.390625 C 1.363281 -11.390625 0.65625 -11.738281 0.09375 -12.4375 C -0.46875 -13.144531 -0.75 -13.765625 -0.75 -14.296875 C -0.75 -15.898438 0.410156 -17.5 2.734375 -19.09375 Z M 22.3125 -10.59375 C 22.3125 -10.832031 22.160156 -11.023438 21.859375 -11.171875 C 21.554688 -11.316406 21.25 -11.398438 20.9375 -11.421875 L 20.46875 -11.421875 C 18.96875 -11.421875 17.054688 -11.085938 14.734375 -10.421875 C 13.941406 -10.203125 13.445312 -10.09375 13.25 -10.09375 C 13.0625 -10.09375 12.898438 -10.164062 12.765625 -10.3125 C 12.640625 -10.457031 12.546875 -10.59375 12.484375 -10.71875 C 12.421875 -10.851562 12.332031 -10.921875 12.21875 -10.921875 C 12.070312 -10.921875 11.914062 -10.835938 11.75 -10.671875 L 5.53125 -2.375 L 5.53125 -2.328125 C 5.65625 -2.117188 5.894531 -2.015625 6.25 -2.015625 L 6.6875 -2.015625 C 8.476562 -2.015625 10.617188 -2.507812 13.109375 -3.5 C 15.597656 -4.5 17.753906 -5.6875 19.578125 -7.0625 C 21.398438 -8.4375 22.3125 -9.613281 22.3125 -10.59375 Z M 22.3125 -10.59375 "/></g></g></g></g></g></g></g></svg>